<?xml version="1.0" encoding="utf-8" ?><svg xmlns="http://www.w3.org/2000/svg" xmlns:xlink="http://www.w3.org/1999/xlink" width="1024" height="1024" viewBox="102 102 820 820"><path fill="white" d="M0 0L1024 0L1024 1024L0 1024L0 0ZM573.749 499.62L471.976 499.807L471.965 524.313C493.421 523.813 515.879 524.39 537.407 524.451L664.123 524.416C681.395 524.381 699.055 524.772 716.271 524.489C716.882 527.041 717.705 529.537 718.731 531.952C729.226 557.205 760.243 569.247 785.26 558.1C797.554 552.754 807.192 542.703 812.017 530.195C821.83 504.092 807.909 475.123 781.846 465.871C769.041 461.413 754.989 462.224 742.783 468.127C728.982 474.752 721.228 485.492 716.32 499.539C669.173 500.253 620.771 498.682 573.749 499.62ZM615.794 244.176C594.259 246.957 580.325 258.62 572.302 278.532C548.062 278.312 529.172 277.918 510.2 296.4C489.755 316.317 495.785 342.477 495.046 368.131C494.926 372.309 495.169 376.579 495.104 380.767C487.18 381.003 479.515 380.622 471.756 380.776C471.611 389.346 471.565 397.918 471.618 406.489C485.678 406.438 502.178 410.744 512.767 400.347C523.174 390.127 520.168 371.828 520.236 358.445C520.32 342.954 517.672 326.083 529.336 314.776C538.996 305.411 551.183 304.03 563.996 304.223C566.35 304.278 568.703 304.381 571.052 304.533C580.222 349.731 639.58 359.41 664.107 321.667C671.265 310.527 673.708 297.001 670.9 284.061C665.619 259.228 641.129 240.708 615.794 244.176ZM442.209 334.21C383.909 337.777 342.32 374.868 328.176 430.859C293.379 434.055 261.244 450.837 238.736 477.567C218.072 501.843 207.691 536.267 210.336 567.952C213.127 601.457 229.186 632.46 254.943 654.068C296.182 688.583 330.705 683.944 380.093 684.195C411.237 684.353 443.975 683.684 475.042 684.679L475.012 675.286L474.88 659.202C442.694 659.44 410.507 659.477 378.321 659.313C359.312 659.261 333.055 660.578 315.381 656.361C296.359 651.964 278.956 642.311 265.156 628.501C246.464 609.761 235.996 584.353 236.064 557.884C236.226 531.119 246.028 506.047 265.17 487.186C272.062 480.477 279.803 474.698 288.194 469.998C310.803 457.079 327.168 455.408 352.497 455.503C352.44 400.706 394.735 360.523 449.237 359.887C457.871 359.786 464.47 361.208 472.75 363.17C473.023 354.373 473.1 345.572 472.981 336.772C463.866 334.49 451.604 333.691 442.209 334.21ZM699.499 353.201C675.133 355.378 660.584 370.009 653.42 392.62C634.796 392.759 614.3 392.342 595.985 392.85C582.645 403.634 566.471 422.806 553.395 435.114C527.171 435.858 498.308 435.309 471.866 435.252C471.923 443.596 471.871 451.94 471.71 460.282C502.437 460.012 533.166 460.054 563.893 460.408C566.438 458.797 573.237 451.286 575.82 448.674L606.267 417.755C622.318 417.716 638.37 417.804 654.421 418.017C656.027 422.586 657.305 425.922 659.737 430.096C679.885 464.678 733.376 462.842 749.998 425.888C755.752 413.019 756.048 398.368 750.818 385.277C742.479 364.106 722.014 351.857 699.499 353.201ZM339.36 488.715C300.084 491.768 269.42 518.869 269.365 560.446C269.353 569.469 277.977 573.968 286.339 572.906C297.564 567.672 295.018 560.821 296.764 550.547C299.138 536.574 308.988 524.809 321.75 518.882C325.902 516.968 330.33 515.718 334.87 515.179C338.305 514.793 345.424 515.284 348.142 513.572C361.724 505.018 355.564 487.814 339.36 488.715ZM520.512 562.25C504.41 562.326 487.899 562.206 471.834 562.499L471.712 587.51C498.491 587.811 525.272 587.803 552.051 587.484L579.454 616.537C583.437 620.753 590.685 628.627 594.85 632.221C612.603 632.39 636.918 630.922 653.752 632.137C656.129 638.63 657.947 643.253 661.939 649.029C678.132 672.455 710.701 678.104 733.975 661.094C757.016 643.238 762.203 611.201 743.919 588.017C735.766 577.526 723.699 570.799 710.488 569.381C695.832 567.686 682.327 571.299 670.829 580.6C661.462 588.177 658.258 595.975 653.98 606.782C638.191 606.661 622.402 606.907 606.625 607.518C596.095 597.351 585.533 585.616 575.389 575.027C572.742 572.263 565.406 564.806 563.525 562.17L520.512 562.25ZM471.761 617.439C471.677 626.047 471.645 634.655 471.664 643.264C479.608 643.273 487.552 643.229 495.495 643.133L495.528 674.56C495.555 689.173 494.318 701.447 501.485 714.787C512.476 735.245 532.28 745.07 554.859 745.046C560.666 745.02 566.472 744.948 572.277 744.828C577.76 759.042 585.019 768.749 599.383 775.161C612.15 780.865 626.654 781.289 639.732 776.343C651.808 771.606 661.483 762.229 666.594 750.307C668.118 746.828 669.76 741.855 670.417 738.117C672.087 723.628 669.424 710.188 660.233 698.525C651.76 687.99 639.452 681.248 626.013 679.78C598.886 676.794 577.652 694.507 570.594 719.943C557.069 720.188 540.117 722.08 529.937 711.594C520.533 701.907 521.405 692.141 521.192 680.493C521.019 671.05 522.559 644.801 520.753 636.911C519.692 632.349 517.436 628.152 514.216 624.751C508.312 618.551 502.102 617.205 493.978 617.266C486.576 617.322 479.166 617.36 471.761 617.439Z"/><path d="M572.302 278.532C580.325 258.62 594.259 246.957 615.794 244.176C641.129 240.708 665.619 259.228 670.9 284.061C673.708 297.001 671.265 310.527 664.107 321.667C639.58 359.41 580.222 349.731 571.052 304.533C568.703 304.381 566.35 304.278 563.996 304.223C551.183 304.03 538.996 305.411 529.336 314.776C517.672 326.083 520.32 342.954 520.236 358.445C520.168 371.828 523.174 390.127 512.767 400.347C502.178 410.744 485.678 406.438 471.618 406.489C471.565 397.918 471.611 389.346 471.756 380.776C479.515 380.622 487.18 381.003 495.104 380.767C495.169 376.579 494.926 372.309 495.046 368.131C495.785 342.477 489.755 316.317 510.2 296.4C529.172 277.918 548.062 278.312 572.302 278.532ZM617.621 269.664C603.857 271.486 594.18 284.126 596.013 297.888C597.845 311.651 610.493 321.318 624.254 319.475C638 317.634 647.655 305.003 645.824 291.255C643.993 277.508 631.37 267.843 617.621 269.664Z"/><path fill="white" d="M624.254 319.475C610.493 321.318 597.845 311.651 596.013 297.888C594.18 284.126 603.857 271.486 617.621 269.664C631.37 267.843 643.993 277.508 645.824 291.255C647.655 305.003 638 317.634 624.254 319.475Z"/><path d="M328.176 430.859C342.32 374.868 383.909 337.777 442.209 334.21C451.604 333.691 463.866 334.49 472.981 336.772C473.1 345.572 473.023 354.373 472.75 363.17C464.47 361.208 457.871 359.786 449.237 359.887C394.735 360.523 352.44 400.706 352.497 455.503C327.168 455.408 310.803 457.079 288.194 469.998C279.803 474.698 272.062 480.477 265.17 487.186C246.028 506.047 236.226 531.119 236.064 557.884C235.996 584.353 246.464 609.761 265.156 628.501C278.956 642.311 296.359 651.964 315.381 656.361C333.055 660.578 359.312 659.261 378.321 659.313C410.507 659.477 442.694 659.44 474.88 659.202L475.012 675.286L475.042 684.679C443.975 683.684 411.237 684.353 380.093 684.195C330.705 683.944 296.182 688.583 254.943 654.068C229.186 632.46 213.127 601.457 210.336 567.952C207.691 536.267 218.072 501.843 238.736 477.567C261.244 450.837 293.379 434.055 328.176 430.859Z"/><path d="M653.42 392.62C660.584 370.009 675.133 355.378 699.499 353.201C722.014 351.857 742.479 364.106 750.818 385.277C756.048 398.368 755.752 413.019 749.998 425.888C733.376 462.842 679.885 464.678 659.737 430.096C657.305 425.922 656.027 422.586 654.421 418.017C638.37 417.804 622.318 417.716 606.267 417.755L575.82 448.674C573.237 451.286 566.438 458.797 563.893 460.408C533.166 460.054 502.437 460.012 471.71 460.282C471.871 451.94 471.923 443.596 471.866 435.252C498.308 435.309 527.171 435.858 553.395 435.114C566.471 422.806 582.645 403.634 595.985 392.85C614.3 392.342 634.796 392.759 653.42 392.62ZM700.814 378.699C686.787 380.174 676.571 392.682 677.927 406.722C679.282 420.761 691.703 431.083 705.753 429.847C719.974 428.596 730.449 415.993 729.077 401.783C727.705 387.573 715.012 377.206 700.814 378.699Z"/><path fill="white" d="M705.753 429.847C691.703 431.083 679.282 420.761 677.927 406.722C676.571 392.682 686.787 380.174 700.814 378.699C715.012 377.206 727.705 387.573 729.077 401.783C730.449 415.993 719.974 428.596 705.753 429.847Z"/><path fill="#5DD2D8" d="M573.749 499.62C620.771 498.682 669.173 500.253 716.32 499.539C721.228 485.492 728.982 474.752 742.783 468.127C754.989 462.224 769.041 461.413 781.846 465.871C807.909 475.123 821.83 504.092 812.017 530.195C807.192 542.703 797.554 552.754 785.26 558.1C760.243 569.247 729.226 557.205 718.731 531.952C717.705 529.537 716.882 527.041 716.271 524.489C714.923 514.372 714.723 510.037 716.652 499.847C680.111 500.52 643.125 499.487 606.537 499.882C595.853 499.997 584.404 500.058 573.749 499.62ZM763.972 487.054C749.816 487.758 738.932 499.84 739.705 513.992C740.478 528.145 752.613 538.97 766.761 538.129C780.813 537.293 791.548 525.259 790.781 511.203C790.013 497.147 778.031 486.354 763.972 487.054Z"/><path fill="white" d="M766.761 538.129C752.613 538.97 740.478 528.145 739.705 513.992C738.932 499.84 749.816 487.758 763.972 487.054C778.031 486.354 790.013 497.147 790.781 511.203C791.548 525.259 780.813 537.293 766.761 538.129Z"/><path d="M286.339 572.906C277.977 573.968 269.353 569.469 269.365 560.446C269.42 518.869 300.084 491.768 339.36 488.715C355.564 487.814 361.724 505.018 348.142 513.572C345.424 515.284 338.305 514.793 334.87 515.179C330.33 515.718 325.902 516.968 321.75 518.882C308.988 524.809 299.138 536.574 296.764 550.547C295.018 560.821 297.564 567.672 286.339 572.906Z"/><path d="M471.976 499.807L573.749 499.62C584.404 500.058 595.853 499.997 606.537 499.882C643.125 499.487 680.111 500.52 716.652 499.847C714.723 510.037 714.923 514.372 716.271 524.489C699.055 524.772 681.395 524.381 664.123 524.416L537.407 524.451C515.879 524.39 493.421 523.813 471.965 524.313L471.976 499.807Z"/><path d="M471.834 562.499C487.899 562.206 504.41 562.326 520.512 562.25L563.525 562.17C565.406 564.806 572.742 572.263 575.389 575.027C585.533 585.616 596.095 597.351 606.625 607.518C622.402 606.907 638.191 606.661 653.98 606.782C658.258 595.975 661.462 588.177 670.829 580.6C682.327 571.299 695.832 567.686 710.488 569.381C723.699 570.799 735.766 577.526 743.919 588.017C762.203 611.201 757.016 643.238 733.975 661.094C710.701 678.104 678.132 672.455 661.939 649.029C657.947 643.253 656.129 638.63 653.752 632.137C636.918 630.922 612.603 632.39 594.85 632.221C590.685 628.627 583.437 620.753 579.454 616.537L552.051 587.484C525.272 587.803 498.491 587.811 471.712 587.51L471.834 562.499ZM702.937 593.792C688.659 594.235 677.461 606.2 677.962 620.476C678.464 634.752 690.473 645.902 704.748 645.343C718.94 644.786 730.012 632.86 729.513 618.666C729.015 604.472 717.134 593.351 702.937 593.792Z"/><path fill="white" d="M704.748 645.343C690.473 645.902 678.464 634.752 677.962 620.476C677.461 606.2 688.659 594.235 702.937 593.792C717.134 593.351 729.015 604.472 729.513 618.666C730.012 632.86 718.94 644.786 704.748 645.343Z"/><path d="M471.664 643.264C471.645 634.655 471.677 626.047 471.761 617.439C479.166 617.36 486.576 617.322 493.978 617.266C502.102 617.205 508.312 618.551 514.216 624.751C517.436 628.152 519.692 632.349 520.753 636.911C522.559 644.801 521.019 671.05 521.192 680.493C521.405 692.141 520.533 701.907 529.937 711.594C540.117 722.08 557.069 720.188 570.594 719.943C577.652 694.507 598.886 676.794 626.013 679.78C639.452 681.248 651.76 687.99 660.233 698.525C669.424 710.188 672.087 723.628 670.417 738.117C669.76 741.855 668.118 746.828 666.594 750.307C661.483 762.229 651.808 771.606 639.732 776.343C626.654 781.289 612.15 780.865 599.383 775.161C585.019 768.749 577.76 759.042 572.277 744.828C566.472 744.948 560.666 745.02 554.859 745.046C532.28 745.07 512.476 735.245 501.485 714.787C494.318 701.447 495.555 689.173 495.528 674.56L495.495 643.133C487.552 643.229 479.608 643.273 471.664 643.264ZM618.315 704.567C609.289 705.453 601.435 711.12 597.749 719.406C594.062 727.693 595.112 737.321 600.498 744.618C605.883 751.915 614.774 755.757 623.779 754.676C637.495 753.031 647.331 740.652 645.834 726.919C644.336 713.186 632.064 703.217 618.315 704.567Z"/><path fill="white" d="M623.779 754.676C614.774 755.757 605.883 751.915 600.498 744.618C595.112 737.321 594.062 727.693 597.749 719.406C601.435 711.12 609.289 705.453 618.315 704.567C632.064 703.217 644.336 713.186 645.834 726.919C647.331 740.652 637.495 753.031 623.779 754.676Z"/></svg>